<svg width="329" height="158" viewBox="0 0 329 158" fill="none" xmlns="http://www.w3.org/2000/svg">
<path d="M319.238 113.193C316.568 112.921 313.923 112.654 311.301 112.393M311.301 112.393C57.503 87.1276 24.7969 112.621 40.4919 128.706L315.236 155.002C203.619 82.6818 -12.4199 -44.7804 16.3646 23.9305C45.1491 92.6413 224.982 111.535 311.301 112.393Z" stroke="#C8A79C" stroke-width="4"/>
<path d="M98.584 62.9518C96.28 63.0798 94.584 63.3358 93.496 63.7198C92.472 64.1038 91.768 64.8398 91.384 65.9278C91 67.0158 90.808 68.7758 90.808 71.2078V118.824C90.808 121.256 91 123.016 91.384 124.104C91.768 125.192 92.472 125.928 93.496 126.312C94.584 126.696 96.28 126.952 98.584 127.08V129C95.64 128.808 91.576 128.712 86.392 128.712C80.888 128.712 76.792 128.808 74.104 129V127.08C76.408 126.952 78.072 126.696 79.096 126.312C80.184 125.928 80.92 125.192 81.304 124.104C81.688 123.016 81.88 121.256 81.88 118.824V67.3678L58.744 129.48H57.208L33.016 67.1758V117.864C33.016 120.36 33.208 122.216 33.592 123.432C34.04 124.648 34.872 125.544 36.088 126.12C37.304 126.632 39.192 126.952 41.752 127.08V129C39.448 128.808 36.184 128.712 31.96 128.712C28.12 128.712 25.144 128.808 23.032 129V127.08C25.272 126.952 26.936 126.632 28.024 126.12C29.112 125.544 29.848 124.648 30.232 123.432C30.616 122.152 30.808 120.296 30.808 117.864V71.2078C30.808 68.7758 30.616 67.0158 30.232 65.9278C29.848 64.8398 29.112 64.1038 28.024 63.7198C27 63.3358 25.336 63.0798 23.032 62.9518V61.0318C25.144 61.2238 28.12 61.3198 31.96 61.3198C35.288 61.3198 38.008 61.2238 40.12 61.0318L61.24 116.616L81.88 61.3198H86.392C91.576 61.3198 95.64 61.2238 98.584 61.0318V62.9518ZM131.137 62.9518C128.833 63.0798 127.137 63.3358 126.049 63.7198C125.025 64.1038 124.321 64.8398 123.937 65.9278C123.553 67.0158 123.361 68.7758 123.361 71.2078V118.824C123.361 121.256 123.553 123.016 123.937 124.104C124.321 125.192 125.025 125.928 126.049 126.312C127.137 126.696 128.833 126.952 131.137 127.08V129C128.193 128.808 124.129 128.712 118.945 128.712C113.441 128.712 109.345 128.808 106.657 129V127.08C108.961 126.952 110.625 126.696 111.649 126.312C112.737 125.928 113.473 125.192 113.857 124.104C114.241 123.016 114.433 121.256 114.433 118.824V71.2078C114.433 68.7758 114.241 67.0158 113.857 65.9278C113.473 64.8398 112.737 64.1038 111.649 63.7198C110.625 63.3358 108.961 63.0798 106.657 62.9518V61.0318C109.345 61.2238 113.441 61.3198 118.945 61.3198C124.065 61.3198 128.129 61.2238 131.137 61.0318V62.9518ZM159.732 59.9758C162.548 59.9758 164.756 60.2958 166.356 60.9358C168.02 61.5118 169.716 62.3758 171.444 63.5278C172.852 64.4238 173.94 64.8718 174.708 64.8718C175.284 64.8718 175.732 64.5518 176.052 63.9118C176.372 63.2078 176.628 62.1198 176.82 60.6478H179.028C178.708 64.3598 178.548 70.8878 178.548 80.2318H176.34C175.956 75.0478 174.452 70.6958 171.828 67.1758C169.268 63.5918 165.524 61.7998 160.596 61.7998C157.14 61.7998 154.324 62.8558 152.148 64.9678C149.972 67.0158 148.884 69.6718 148.884 72.9358C148.884 75.3678 149.428 77.4798 150.516 79.2718C151.668 81.0638 153.108 82.5998 154.836 83.8798C156.564 85.1598 159.028 86.7918 162.228 88.7758L165.012 90.5038C169.044 92.9998 172.212 95.2078 174.516 97.1278C176.884 98.9838 178.772 101.128 180.18 103.56C181.588 105.992 182.292 108.84 182.292 112.104C182.292 117.928 180.372 122.44 176.532 125.64C172.692 128.776 167.828 130.344 161.94 130.344C158.868 130.344 156.34 130.024 154.356 129.384C152.436 128.744 150.58 127.88 148.788 126.792C147.38 125.896 146.292 125.448 145.524 125.448C144.948 125.448 144.5 125.8 144.18 126.504C143.86 127.144 143.604 128.2 143.412 129.672H141.204C141.46 126.152 141.588 118.472 141.588 106.632H143.796C144.244 113.096 145.844 118.344 148.596 122.376C151.348 126.408 155.572 128.424 161.268 128.424C164.724 128.424 167.668 127.368 170.1 125.256C172.532 123.08 173.748 119.88 173.748 115.656C173.748 112.072 172.532 109.032 170.1 106.536C167.732 104.04 163.956 101.224 158.772 98.0878C154.996 95.7838 151.924 93.7358 149.556 91.9438C147.252 90.1518 145.364 88.0078 143.892 85.5118C142.42 82.9518 141.684 79.9758 141.684 76.5838C141.684 71.2078 143.412 67.1118 146.868 64.2958C150.324 61.4158 154.612 59.9758 159.732 59.9758ZM240.963 120.936C242.499 124.904 244.707 126.952 247.587 127.08V129C245.027 128.808 241.603 128.712 237.315 128.712C231.811 128.712 227.715 128.808 225.027 129V127.08C227.459 126.952 229.187 126.664 230.211 126.216C231.299 125.704 231.843 124.808 231.843 123.528C231.843 122.44 231.459 120.936 230.691 119.016L224.835 103.272H201.603L197.667 113.448C196.387 116.904 195.747 119.528 195.747 121.32C195.747 123.304 196.419 124.744 197.763 125.64C199.171 126.536 201.283 127.016 204.099 127.08V129C200.451 128.808 196.771 128.712 193.059 128.712C190.179 128.712 187.779 128.808 185.859 129V127.08C189.059 126.312 191.587 123.528 193.443 118.728L216.003 60.5518H217.539L240.963 120.936ZM224.067 101.352L213.315 72.6478L202.371 101.352H224.067ZM273.637 62.9518C271.333 63.0798 269.637 63.3358 268.549 63.7198C267.525 64.1038 266.821 64.8398 266.437 65.9278C266.053 67.0158 265.861 68.7758 265.861 71.2078V118.824C265.861 121.256 266.053 123.016 266.437 124.104C266.821 125.192 267.525 125.928 268.549 126.312C269.637 126.696 271.333 126.952 273.637 127.08V129C270.693 128.808 266.629 128.712 261.445 128.712C255.941 128.712 251.845 128.808 249.157 129V127.08C251.461 126.952 253.125 126.696 254.149 126.312C255.237 125.928 255.973 125.192 256.357 124.104C256.741 123.016 256.933 121.256 256.933 118.824V71.2078C256.933 68.7758 256.741 67.0158 256.357 65.9278C255.973 64.8398 255.237 64.1038 254.149 63.7198C253.125 63.3358 251.461 63.0798 249.157 62.9518V61.0318C251.845 61.2238 255.941 61.3198 261.445 61.3198C266.565 61.3198 270.629 61.2238 273.637 61.0318V62.9518Z" fill="#47423F"/>
</svg>
